<svg width="26" height="27" viewBox="0 0 26 27" fill="none" xmlns="http://www.w3.org/2000/svg">
<g clip-path="url(#clip0_1_186)">
<path d="M-6.09763 32.6406H31.0452V-6.35938H-6.09763V32.6406Z" fill="black"/>
<path d="M22.5581 18.5408C22.5581 20.1658 22.1087 21.4749 21.211 22.3654C20.3109 23.2572 19.0642 23.7304 17.5661 23.7304H7.38152C5.88342 23.7304 4.63542 23.2572 3.73656 22.3654C2.83894 21.4229 2.38704 20.1125 2.38704 18.4875V7.74043C2.38704 6.16743 6.42818 1.08442 7.3258 0.140625C2.98628 0.143225 0.0928497 3.18263 0.0928497 7.74043V18.4862C0.0928497 20.7404 0.791135 22.6813 2.18895 24.0957C3.53723 25.4581 5.33371 26.1406 7.38152 26.1406H17.5661C19.7117 26.1406 21.5094 25.4061 22.8069 24.0957C24.1552 22.7333 24.8548 20.7937 24.8548 18.5395V7.74043C24.8548 5.53953 24.1552 3.65192 22.8577 2.28953C21.5602 0.873825 19.7105 0.140625 17.6156 0.140625H7.32952L3.73656 3.91582C4.5859 3.02402 5.88342 2.55212 7.38152 2.55212H17.6651C19.1632 2.55212 20.4112 3.02402 21.3101 3.96912C22.1594 4.91162 22.6571 6.22202 22.6571 7.74172V18.5408H22.5581ZM19.0134 7.89772C19.207 7.90367 19.3997 7.86878 19.5802 7.79511C19.7606 7.72145 19.9252 7.61051 20.0641 7.46886C20.203 7.32722 20.3134 7.15775 20.3888 6.97049C20.4642 6.78323 20.5031 6.58199 20.5031 6.37867C20.5031 6.17536 20.4642 5.97412 20.3888 5.78686C20.3134 5.5996 20.203 5.43013 20.0641 5.28848C19.9252 5.14684 19.7606 5.0359 19.5802 4.96224C19.3997 4.88857 19.207 4.85368 19.0134 4.85962C18.6371 4.87119 18.2798 5.0363 18.0175 5.31991C17.7551 5.60353 17.6084 5.98332 17.6084 6.37867C17.6084 6.77403 17.7551 7.15382 18.0175 7.43744C18.2798 7.72105 18.6371 7.88616 19.0134 7.89772ZM12.4738 17.4397C11.3894 17.4346 10.3508 16.98 9.58404 16.1749C8.81725 15.3698 8.38431 14.2792 8.37942 13.1406C8.38431 12.002 8.81725 10.9115 9.58404 10.1064C10.3508 9.30124 11.3894 8.84665 12.4738 8.84153C13.5582 8.84665 14.5968 9.30124 15.3636 10.1064C16.1304 10.9115 16.5633 12.002 16.5682 13.1406C16.563 14.279 16.1299 15.3692 15.3631 16.174C14.5964 16.9789 13.558 17.4333 12.4738 17.4384V17.4397ZM12.4738 6.43132C8.9799 6.43132 6.08399 9.41873 6.08399 13.1406C6.08171 14.0224 6.24542 14.8959 6.56573 15.711C6.88604 16.5261 7.35662 17.2667 7.95042 17.8902C8.54423 18.5137 9.24954 19.0078 10.0258 19.3441C10.8021 19.6804 11.634 19.8523 12.4738 19.8499C16.0185 19.8499 18.8624 16.8092 18.8624 13.1419C18.8624 9.47073 15.9677 6.43132 12.4738 6.43132Z" fill="white"/>
</g>
<defs>
<clipPath id="clip0_1_186">
<rect width="26" height="26" fill="white" transform="translate(0 0.171875)"/>
</clipPath>
</defs>
</svg>
