<svg width="129" height="42" viewBox="0 0 129 42" fill="none" xmlns="http://www.w3.org/2000/svg">
<g clip-path="url(#clip0_1_174)">
<path d="M94.25 33.402C91.077 33.402 88.603 32.095 87.016 29.714V32.934H80.434V0.834961H87.016V13.236C88.603 10.856 91.076 9.54796 94.251 9.54796C100.179 9.54796 104.894 14.87 104.894 21.451C104.894 28.033 100.179 33.401 94.251 33.401L94.25 33.402ZM92.757 15.804C89.536 15.804 87.016 18.277 87.016 21.451C87.016 24.673 89.536 27.099 92.756 27.099C95.932 27.099 98.499 24.626 98.499 21.451C98.499 18.324 95.932 15.804 92.757 15.804Z" fill="#FCFCFA"/>
<path d="M128.078 10.0146L115.334 40.5436H108.286L112.533 31.0676L103.711 10.0146H110.806L115.894 23.4116L120.984 10.0146H128.078Z" fill="#FCFCFA"/>
<path d="M77.395 32.935H70.813V0.834961H77.395V32.935Z" fill="#FCFCFA"/>
<path d="M68.194 32.9349H61.986V30.0879C60.632 32.3279 58.485 33.4019 55.451 33.4019C51.39 33.4019 48.355 30.3679 48.355 26.5399C48.355 21.7319 52.603 19.2099 59.045 19.2099H61.985V18.6969C61.985 16.6429 60.212 14.9149 57.598 14.9149C55.124 14.9149 52.697 16.2699 51.436 17.8569L47.842 14.0289C49.849 11.4139 53.77 9.54688 57.598 9.54688C64.087 9.54688 68.194 13.3289 68.194 18.8369V32.9349ZM61.986 23.3189H58.718C55.824 23.3189 54.097 24.2059 54.097 25.9329C54.097 27.3329 55.217 28.2669 56.991 28.2669C59.885 28.2669 61.986 26.3069 61.986 24.0189V23.3189Z" fill="#FCFCFA"/>
<path d="M46.017 19.958V32.935H39.435V20.798C39.435 17.811 37.615 15.85 34.907 15.85C32.153 15.85 30.379 17.811 30.379 20.798V32.935H23.797V0.834961H30.379V13.003C31.826 10.809 33.973 9.54796 36.589 9.54796C42.469 9.54796 46.017 13.47 46.017 19.958Z" fill="#FCFCFA"/>
<path d="M21.21 32.655C20.37 33.075 19.062 33.308 17.848 33.308C12.48 33.308 8.69901 29.9 8.69901 23.972V0.834961H15.281V10.015H20.929V16.27H15.281V23.645C15.281 25.793 16.914 27.146 18.828 27.146C19.482 27.146 20.369 27.007 20.882 26.82L21.21 32.655Z" fill="#FCFCFA"/>
<path d="M7.435 13.1419C7.43506 13.614 7.34214 14.0814 7.16153 14.5176C6.98093 14.9538 6.71618 15.3502 6.3824 15.684C6.04862 16.0179 5.65234 16.2828 5.2162 16.4635C4.78006 16.6442 4.3126 16.7373 3.8405 16.7374C3.36839 16.7374 2.9009 16.6445 2.46471 16.4639C2.02852 16.2833 1.63217 16.0185 1.2983 15.6848C0.964427 15.351 0.699566 14.9547 0.51884 14.5186C0.338113 14.0824 0.245061 13.615 0.244995 13.1429C0.244995 12.1894 0.623753 11.275 1.29795 10.6008C1.97214 9.92661 2.88654 9.54785 3.83999 9.54785C4.79345 9.54785 5.70785 9.92661 6.38204 10.6008C7.05624 11.275 7.435 12.1894 7.435 13.1429V13.1419Z" fill="#CCCC33"/>
</g>
<defs>
<clipPath id="clip0_1_174">
<rect width="129" height="41" fill="white" transform="translate(0 0.171875)"/>
</clipPath>
</defs>
</svg>
