<svg width="26" height="27" viewBox="0 0 26 27" fill="none" xmlns="http://www.w3.org/2000/svg">
<g clip-path="url(#clip0_1_192)">
<path d="M26 3.24882C25.0455 3.77382 24.0148 4.12362 22.9385 4.27982C24.0402 3.46752 24.883 2.18032 25.2842 0.649316C24.2534 1.39912 23.1111 1.94902 21.8977 2.24272C20.9227 0.967816 19.5366 0.174316 18.0034 0.174316C15.0587 0.174316 12.6726 3.11132 12.6726 6.73552C12.6726 7.24792 12.7182 7.74782 12.8095 8.22902C8.37719 7.95402 4.44762 5.34202 1.81755 1.36782C1.3606 2.33652 1.09662 3.46752 1.09662 4.66722C1.09662 6.94182 2.03587 8.95392 3.46766 10.1287C2.59422 10.0973 1.77181 9.79742 1.05088 9.31002V9.39122C1.05088 12.5718 2.88875 15.2275 5.33088 15.8274C4.88401 15.9774 4.41195 16.0586 3.92445 16.0586C3.5793 16.0586 3.24926 16.0148 2.91922 15.9398C3.59961 18.5455 5.5696 20.4452 7.89985 20.5014C6.07213 22.2636 3.77722 23.3134 1.27423 23.3134C0.842796 23.3134 0.421271 23.2821 -9.15527e-05 23.2196C2.36591 25.088 5.16847 26.169 8.17918 26.169C17.9882 26.169 23.3547 16.1647 23.3547 7.49142C23.3547 7.20402 23.3496 6.92282 23.3395 6.64162C24.3804 5.72322 25.2842 4.56722 26 3.24882Z" fill="white"/>
</g>
<defs>
<clipPath id="clip0_1_192">
<rect width="26" height="26" fill="white" transform="translate(0 0.171875)"/>
</clipPath>
</defs>
</svg>
